<svg id="Layer_1" data-name="Layer 1" xmlns="http://www.w3.org/2000/svg" viewBox="0 0 500 500"><defs><style>.cls-1{fill:#fff2d1;}.cls-2{fill:#461619;}.cls-3,.cls-4{fill:none;stroke-miterlimit:10;stroke-width:5px;}.cls-3{stroke:#cca587;}.cls-4{stroke:#28434a;}</style></defs><title>logo-no-eyes</title><path class="cls-1" d="M111.54,307.47c20.67,63.86,40.12,89.2,45.89,96.44,7.91,9.92,25.2,30.19,53.21,45.22,22.38,12,35.57,12.12,40.39,11.95,4.48-.17,15.94-1.08,37.42-13.28,10.56-6,30.73-17.7,50.55-41.23,29.27-34.78,38.14-72,44.56-100.43,12.06-53.35,18.39-83.33,6-113.73-28.66-70.2-149.41-98.55-230.11-63.85-14.67,6.31-51.85,22.29-66.51,58.53C81.61,215,91.59,245.84,111.54,307.47Z"/><path class="cls-2" d="M279.81,163.15c-4.76-2.63-11.72-5.43-19.29-4C245.73,162,244.16,178,226.25,198c0,0-21.74,24.15-53.8,34.48A114.75,114.75,0,0,1,137.86,238a72,72,0,0,1,4.29-14.61,64.52,64.52,0,0,1,14-21,125.7,125.7,0,0,0-26.91,28.92c-5.73,8.46-13.5,19.5-17.55,36.18a93.25,93.25,0,0,0-1.5,36c-8.4-10.31-45.19-57.76-35.52-117.93C83.25,132.14,123.41,103.89,165,72.8c28.23-21.1,56.66-41.65,88.13-31.63,17.5,5.58,29.54,18.57,36.51,27.81a72.67,72.67,0,0,1,18.54-3.11,89.15,89.15,0,0,1,39.2,9.45c17.22,8.66,95.19,81.77,71,168.28-3.65,13.06-12.08,35.14-33.63,57.84-3.54-37.54-13.9-51.9-23.22-57.84A159.88,159.88,0,0,1,336.8,224a54.61,54.61,0,0,1-8.46-10.6c-8.74-13.89-6.44-21.49-14.69-41-6.7-15.8-11.2-17.52-12.66-18C291.83,151.57,281.77,161.21,279.81,163.15Z"/><line class="cls-3" x1="262.62" y1="286.48" x2="262.62" y2="362.67"/><circle class="cls-4" cx="182.8" cy="287.44" r="42.65"/><circle class="cls-4" cx="313.25" cy="287.44" r="42.65"/><line class="cls-4" x1="225.45" y1="287.44" x2="270.6" y2="287.44"/><line class="cls-3" x1="262.62" y1="360.18" x2="234.25" y2="360.18"/></svg>